<?xml version="1.0" standalone="no"?><!DOCTYPE svg PUBLIC "-//W3C//DTD SVG 1.1//EN" "http://www.w3.org/Graphics/SVG/1.1/DTD/svg11.dtd"><svg t="1758731685430" class="icon" viewBox="0 0 1024 1024" version="1.1" xmlns="http://www.w3.org/2000/svg" p-id="1826" xmlns:xlink="http://www.w3.org/1999/xlink" width="200" height="200" fill="currentColor"><path d="M214.186667 546.133333c2.56 6.826667 102.4 279.04 104.96 284.16 1.706667 4.266667 5.973333 7.68 11.093333 7.68 6.826667 0 11.946667-5.12 11.946667-11.946666v-1.706667c0-1.706667-12.8-61.44-26.453334-126.293333 26.453333-33.28 64-80.213333 64.853334-81.066667 2.56-3.413333 4.266667-8.533333 4.266666-13.653333 0-6.826667-3.413333-11.946667-7.68-16.213334-3.413333-2.56-92.16-75.946667-103.253333-83.626666-5.973333-4.266667-14.506667-7.68-23.04-7.68-21.333333 0-38.4 17.066667-38.4 38.4 0 4.266667 0.853333 8.533333 1.706667 11.946666m78.506666 43.52c12.8 6.826667 25.6 14.506667 39.253334 21.333334-8.533333 12.8-17.92 28.16-26.453334 41.813333-4.266667-22.186667-8.533333-44.373333-12.8-63.146667" p-id="1827"></path><path d="M474.453333 589.653333c-5.12-5.12-53.76-40.96-73.386666-55.466666-1.706667-23.893333-7.68-81.066667-8.533334-87.893334 0-2.56-0.853333-5.12-1.706666-6.826666-5.973333-15.36-23.04-23.893333-38.4-17.92-14.506667 5.973333-23.04 22.186667-18.773334 36.693333 2.56 11.093333 26.453333 81.92 29.866667 92.16 1.706667 5.12 5.973333 9.386667 10.24 11.946667l58.026667 27.306666v44.373334c0 1.706667 0 2.56 0.853333 4.266666l15.36 34.133334c-36.693333 19.626667-61.44 58.88-61.44 104.106666 0 65.706667 52.906667 118.613333 118.613333 118.613334S623.786667 842.24 623.786667 776.533333s-52.906667-118.613333-118.613334-118.613333c-13.653333 0-26.453333 2.56-39.253333 6.826667l-14.506667-32.426667V605.866667h37.546667c11.093333 0 15.36 4.266667 15.36 10.24s-3.413333 10.24-15.36 10.24h-4.266667c-5.12 0-9.386667 3.413333-9.386666 8.533333s4.266667 8.533333 9.386666 8.533333h6.826667c23.893333 0 30.72-14.506667 30.72-25.6 0-14.506667-10.24-28.16-33.28-28.16h-14.506667z m29.866667 285.013334c-54.613333 0-98.986667-44.373333-98.986667-98.986667 0-36.693333 20.48-69.12 50.346667-86.186667l40.106667 90.453334c1.706667 3.413333 5.12 5.973333 8.533333 5.973333 1.706667 0 2.56 0 4.266667-0.853333 5.12-2.56 6.826667-7.68 5.12-12.8l-40.106667-90.453334c10.24-3.413333 20.48-5.12 31.573333-5.12 54.613333 0 98.986667 44.373333 98.986667 98.986667 0 54.613333-45.226667 98.986667-99.84 98.986667M448 451.413333c20.48 0 37.546667-17.066667 37.546667-37.546666s-17.066667-37.546667-37.546667-37.546667-37.546667 17.066667-37.546667 37.546667 17.066667 37.546667 37.546667 37.546666M366.08 214.186667c10.24-2.56 75.946667-25.6 109.226667-38.4 5.12 11.093333 12.8 23.893333 18.773333 36.693333-84.48 6.826667-164.693333 28.16-238.08 61.44 10.24 6.826667 22.186667 11.093333 34.986667 11.093333 13.653333 0 26.453333-4.266667 36.693333-11.946666 10.24 7.68 23.04 11.946667 36.693333 11.946666s26.453333-4.266667 36.693334-11.946666c10.24 7.68 23.04 11.946667 36.693333 11.946666s26.453333-4.266667 36.693333-11.946666c10.24 7.68 23.04 11.946667 36.693334 11.946666 24.746667 0 46.08-15.36 56.32-36.693333 0.853333-1.706667 1.706667-2.56 1.706666-4.266667 2.56-7.68 1.706667-16.213333-1.706666-23.04-11.093333-20.48-59.733333-82.773333-72.533334-88.746666-0.853333-0.853333-2.56-0.853333-3.413333-1.706667-4.266667-1.706667-8.533333-0.853333-11.946667 0-7.68 2.56-119.466667 57.173333-123.733333 59.733333-2.56 1.706667-4.266667 4.266667-5.12 6.826667-1.706667 6.826667 1.706667 13.653333 8.533333 15.36 2.56 1.706667 5.12 1.706667 6.826667 1.706667M680.96 240.64v3.413333c0 14.506667-5.973333 28.16-15.36 38.4 5.12 1.706667 10.24 2.56 16.213333 2.56 13.653333 0 26.453333-4.266667 36.693334-11.946666 10.24 7.68 23.04 11.946667 36.693333 11.946666 16.213333 0 30.72-5.973333 41.813333-16.213333-37.546667-12.8-76.8-22.186667-116.053333-28.16M624.64 203.946667c-22.186667 0-40.96 17.92-40.96 40.96 0 22.186667 17.92 40.96 40.96 40.96 22.186667 0 40.96-17.92 40.96-40.96 0-23.04-18.773333-40.96-40.96-40.96M867.84 580.266667c3.413333 6.826667 10.24 11.946667 17.92 11.093333 5.12-0.853333 9.386667-3.413333 11.946667-6.826667l69.973333-85.333333c2.56-3.413333 3.413333-9.386667 0.853333-13.653333-3.413333-5.12-10.24-6.826667-15.36-3.413334-0.853333 0.853333-1.706667 0.853333-1.706666 1.706667-19.626667 17.92-38.4 35.84-55.466667 52.906667-3.413333-18.773333-7.68-36.693333-11.946667-52.053334-3.413333 24.746667-11.093333 54.613333-20.48 84.48l4.266667 11.093334zM817.493333 444.586667c-23.893333 12.8-52.053333 29.013333-77.653333 42.666666-3.413333 1.706667-5.12 5.12-6.826667 8.533334-0.853333 1.706667-0.853333 3.413333-1.706666 5.12l-10.24 109.226666c-0.853333 5.12 2.56 11.093333 7.68 12.8 5.973333 2.56 13.653333-0.853333 15.36-6.826666 0-0.853333 0-0.853333 0.853333-1.706667 7.68-36.693333 14.506667-69.12 20.48-96.426667 25.6-7.68 51.2-16.213333 73.386667-23.893333 11.946667-4.266667 18.773333-17.066667 17.066666-29.866667-2.56-14.506667-17.066667-23.893333-31.573333-21.333333-2.56 0-5.12 0.853333-6.826667 1.706667M932.693333 662.186667c-5.12-2.56-98.986667-55.466667-107.52-58.88-4.266667-1.706667-9.386667-3.413333-13.653333-3.413334-12.8 0-23.893333 6.826667-29.866667 17.066667l-143.36 259.413333c-0.853333 1.706667-1.706667 3.413333-1.706666 5.12 0 6.826667 4.266667 11.946667 11.093333 12.8 4.266667 0 7.68-1.706667 10.24-4.266666l160.426667-212.48c19.626667 6.826667 41.813333 14.506667 62.293333 20.48-28.16 41.813333-67.413333 104.96-71.68 110.933333-0.853333 1.706667-1.706667 4.266667-2.56 5.973333-0.853333 6.826667 5.12 12.8 11.946667 13.653334 4.266667 0 7.68-1.706667 10.24-4.266667 1.706667-1.706667 108.373333-123.733333 109.226666-125.44 3.413333-3.413333 5.12-7.68 5.973334-12.8 2.56-9.386667-2.56-18.773333-11.093334-23.893333M882.346667 445.44c20.48 0.853333 38.4-14.506667 39.253333-34.986667 0.853333-20.48-14.506667-38.4-34.986667-39.253333s-38.4 14.506667-39.253333 34.986667 14.506667 38.4 34.986667 39.253333M273.066667 775.68C273.066667 709.973333 220.16 657.066667 154.453333 657.066667c-41.813333 0-79.36 22.186667-99.84 55.466666 3.413333 7.68 5.973333 15.36 9.386667 23.04 15.36-34.986667 50.346667-58.88 90.453333-58.88 54.613333 0 98.986667 44.373333 98.986667 98.986667 0 53.76-43.52 98.133333-97.28 98.986667 5.973333 5.973333 11.093333 11.946667 17.066667 17.92 56.32-9.386667 99.84-58.026667 99.84-116.906667" p-id="1828"></path></svg>